<svg width="256" height="256" viewBox="0 0 256 256" fill="none" xmlns="http://www.w3.org/2000/svg">
  <rect width="256" height="256" rx="48" fill="#10212B"/>
  <path d="M38 132C58 90 88 69 128 69C168 69 198 90 218 132C198 174 168 195 128 195C88 195 58 174 38 132Z" fill="#F7F9F2"/>
  <circle cx="128" cy="132" r="49" fill="#1B3B4B"/>
  <circle cx="128" cy="132" r="25" fill="#33C6A4"/>
  <path d="M69 65L91 65L91 87" stroke="#33C6A4" stroke-width="14" stroke-linecap="round" stroke-linejoin="round"/>
  <path d="M187 191L165 191L165 169" stroke="#33C6A4" stroke-width="14" stroke-linecap="round" stroke-linejoin="round"/>
  <path d="M88 78C67 90 51 108 38 132" stroke="#33C6A4" stroke-width="10" stroke-linecap="round"/>
  <path d="M168 186C189 174 205 156 218 132" stroke="#33C6A4" stroke-width="10" stroke-linecap="round"/>
</svg>
